<svg xmlns="http://www.w3.org/2000/svg" version="1.1" viewBox="-201.055 49.33 480.402 469.11">

  <title xml:lang="en">GitHub</title>

  <style>

    svg {
      fill: rgb(54, 57, 69);
    }

  </style>

  <path d="M-35.238,418.763c-4,4-10.57,9.117-13.57,4.117c-2-3,3.673-2.947,5.673-4.947c-1,0-0.672,0.453-1.672,0.453
    c3-1,6.806,0.604,9.806,0.604C-34.833,418.976-35.238,418.763-35.238,418.763z"/>
  <path d="M-66.147,414.853c-2,2-0.812,4.941-0.812,6.941c5-1,9.409-0.682,14.409-2.682c-4-2-8.429-4.218-12.429-5.218
    c-1,0-2.336,0.42-2.336,1.42c1,0,2.314-0.314,2.314,1.686c-1,0-1.172-0.978-1.172-1.978
    C-66.186,414.919-66.147,414.853-66.147,414.853z"/>
  <path d="M-28.939,416.938c-0.5-0.5-0.332-0.816-0.964-1.133c-1,0-2.186,1.372-1.186,2.372c1,0,1.909-0.178,2.909-0.178
    c-1,1-1.68,2.93-1.68,3.93c0.316,0.633,0.233,0.661,0.919,0.832c3,0,4.963-1.671,7.963-1.671c1-1,2.203-3.392,0.203-5.392
    c-2-1-5.21,0.351-8.21,1.351C-29.025,417.063-28.939,416.938-28.939,416.938z"/>
  <path d="M279.241,274.383c-0.026-0.461-0.086-0.921-0.177-1.374c-0.293-1.466-0.273-2.996-0.249-4.933
    c0.032-2.484,0.071-5.576-0.636-9.109c-0.922-4.61-1.608-9.195-2.336-14.05l-0.069-0.462c-0.542-3.611-1.302-7.082-2.037-10.438
    c-0.359-1.645-0.721-3.292-1.053-4.95c-0.031-0.155-0.065-0.31-0.104-0.464c-1.417-5.667-3.046-11.327-4.842-16.823
    c-0.479-1.464-0.938-2.932-1.396-4.395c-1.252-4.003-2.547-8.142-4.233-12.241c-1.604-3.9-3.511-7.413-5.354-10.809
    c-0.917-1.689-1.783-3.284-2.584-4.875c-2.871-5.701-5.946-10.93-8.576-15.292c-0.596-0.987-1.185-1.978-1.774-2.968
    c-2.323-3.903-4.726-7.939-7.519-11.885l-1.565-2.221c-2.752-3.91-5.598-7.954-8.807-11.878l-0.994-1.217
    c-3.255-3.987-6.621-8.109-10.327-12.091c-0.081-0.087-0.164-0.173-0.248-0.258c-1.163-1.163-2.389-2.112-3.47-2.95
    c-0.973-0.753-2.184-1.69-2.562-2.258c-0.41-0.616-0.888-1.184-1.423-1.694c-4.48-4.267-9.181-8.033-13.727-11.676l-1.255-1.006
    c-1.527-1.226-3.029-2.502-4.62-3.853c-3.351-2.845-6.815-5.788-10.731-8.422c-4.672-3.143-9.482-5.802-14.135-8.375
    c-0.941-0.52-1.881-1.04-2.816-1.562c-5.968-3.331-12.209-6.221-17.591-8.668c-1.498-0.682-2.989-1.383-4.48-2.084
    c-4.293-2.019-8.733-4.107-13.477-5.817c-4.304-1.552-8.551-2.537-12.658-3.49c-2.197-0.51-4.273-0.991-6.287-1.542
    c-6.87-1.878-13.09-3.343-19.015-4.475c-7.311-1.397-13.442-2.355-19.3-3.014c-6.289-0.706-12.652-1.167-19.454-1.411
    c-0.119-0.004-0.238-0.006-0.358-0.006c-0.183-0.001-0.376,0.005-0.563,0.016c-6.971-0.093-12.809,0.003-18.305,0.298
    c-5.61,0.302-12.251,0.722-18.966,1.555c-5.861,0.727-11.561,1.856-17.073,2.949L-9.59,54.5
    c-1.755,0.347-3.518,0.664-5.279,0.98c-4.357,0.785-8.862,1.596-13.417,2.851c-5.187,1.429-10.131,3.234-14.913,4.979
    c-1.063,0.388-2.125,0.775-3.188,1.158c-1.2,0.432-2.403,0.857-3.606,1.282c-4.674,1.65-9.506,3.356-14.29,5.525
    c-5.636,2.555-11.397,5.469-17.123,8.662c-4.725,2.634-9.084,5.615-13.3,8.499c-0.942,0.644-1.884,1.289-2.832,1.93
    c-1.173,0.794-2.355,1.578-3.539,2.363c-4.026,2.669-8.19,5.43-12.201,8.7c-4.049,3.302-9.352,7.734-14.469,12.746
    c-4.177,4.092-7.98,8.485-11.668,12.82c-2.172,1.222-4.908,3.146-6.877,6.395c-0.951,1.179-1.909,2.344-2.863,3.504
    c-2.799,3.402-5.692,6.92-8.32,10.692c-3.683,5.289-6.877,10.595-10.098,16.02c-2.492,4.2-4.524,8.443-6.49,12.548
    c-0.696,1.453-1.39,2.903-2.102,4.342c-0.854,1.726-1.761,3.44-2.722,5.256c-1.963,3.709-3.994,7.545-5.685,11.74
    c-1.985,4.92-3.571,9.924-5.105,14.763c-0.334,1.052-0.667,2.104-1.005,3.156c-1.759,5.473-3.752,11.677-5.357,18.093
    c-0.198,0.793-0.298,1.608-0.298,2.425c0,1.457,0.271,2.795,0.522,3.914c-0.259,1.133-0.526,2.262-0.793,3.389
    c-1.042,4.405-2.119,8.959-2.746,13.725c-0.683,5.181-0.871,10.216-1.052,15.086c-0.054,1.435-0.107,2.868-0.173,4.295
    l-0.062,1.323c-0.277,5.87-0.563,11.94-0.327,18.088l0.06,1.553c0.22,5.804,0.448,11.805,1.197,17.843
    c0.818,6.597,1.886,13.049,3.174,19.179c0.944,4.496,2.34,8.653,3.689,12.675c0.688,2.048,1.337,3.982,1.91,5.907
    c0.591,1.985,1.111,4.044,1.662,6.223c1.019,4.028,2.072,8.193,3.705,12.412c2.218,5.731,4.742,11.228,7.851,17.717
    c2.678,5.59,5.716,11.346,9.028,17.105c2.281,3.968,4.851,7.581,7.336,11.074c1.208,1.698,2.35,3.303,3.451,4.935
    c0.854,1.264,1.697,2.537,2.542,3.813c2.617,3.952,5.323,8.039,8.479,12.076c0.936,1.179,1.861,2.365,2.786,3.551
    c2.873,3.683,5.843,7.491,9.15,11.111c3.169,3.47,6.519,6.536,9.758,9.502c1.312,1.2,2.621,2.397,3.905,3.614
    c4.717,4.467,9.501,8.678,14.219,12.514c5.732,4.661,10.536,8.306,15.118,11.469c4.621,3.188,9.387,5.925,13.996,8.57
    l2.234,1.285c5.516,3.184,10.946,6.268,16.73,9c6.332,2.991,12.705,5.46,17.551,7.277c0.115,0.043,0.232,0.085,0.349,0.123
    c5.797,1.935,11.294-0.041,14.931-1.349c0.452-0.162,0.889-0.32,1.306-0.459c0.843-0.281,1.646-0.674,2.385-1.167
    c6.444-4.296,9.181-12.616,6.679-20.265c-1.719-5.472-2.301-11.53-2.749-17.269c-0.459-5.872-0.834-12.175-0.477-18.467
    c0.349-6.142,0.945-12.106,1.576-18.421l0.062-0.614c0.306-3.067-0.819-6.104-3.049-8.231c-2.231-2.127-5.322-3.105-8.366-2.655
    c-5.305,0.786-10.633,1.206-16.289,1.285c-4.822,0.063-10.261-0.391-16.186-1.361c-4.839-0.791-9.628-2.338-14.237-4.596
    c-4.655-2.28-7.857-4.788-10.076-7.895c-2.642-3.696-4.107-7.477-4.613-11.896c-0.105-0.918-0.336-1.816-0.688-2.671
    c-1.177-2.858-3.502-5.037-6.378-5.979c-0.074-0.024-0.149-0.048-0.226-0.071c-1.155-1.426-2.307-2.94-3.495-4.505
    c-1.177-1.55-2.395-3.152-3.677-4.744l-0.288-0.357c-3.41-4.236-6.937-8.618-10.696-12.77
    c-3.677-4.06-8.165-8.745-13.569-12.707c-3.208-2.352-6.699-4.389-10.432-6.091c-0.511-1.486-1.089-2.854-1.678-4.142
    c1.759,0.344,3.774,0.701,5.978,0.862c1.462,0.818,3.61,1.836,6.341,1.836c0.382,0,0.783,0.011,1.186,0.022
    c4.43,1.758,8.657,4.062,12.327,6.118c4.132,2.317,7.347,4.519,9.948,6.823c2.57,7.03,5.645,12.544,9.58,17.204
    c4.179,4.951,9.568,9.494,16.476,13.889c0.216,0.138,0.437,0.267,0.662,0.387c6.154,3.282,12.556,5.305,19.031,6.01
    c6.368,0.695,12.446-0.328,17.808-1.227l0.989-0.166c6.6-1.102,12.429-2.903,16.77-4.35c4.334-1.445,7.138-5.644,6.813-10.2
    c-0.395-5.519,1.936-10.536,3.961-13.773c2.75-4.397,6.344-7.413,10.68-8.961c4.069-1.453,6.745-5.356,6.634-9.676
    s-2.984-8.079-7.123-9.32c-5.205-1.562-10.513-2.577-16.706-3.196c-1.815-0.182-3.544-0.266-5.216-0.346
    c-3.083-0.149-5.747-0.278-8.017-0.959c-0.932-0.28-1.9-0.422-2.874-0.422c-0.843,0-2.212-0.321-3.662-0.661
    c-2.076-0.487-4.619-1.084-7.466-1.178c-5.747-0.78-12.332-1.907-18.197-4.227c-5.252-2.076-10.515-5.096-16.075-9.223
    c-1.034-0.917-2.025-1.553-2.723-2c-0.056-0.036-0.111-0.071-0.167-0.106c-2.76-3.212-5.211-7.139-7.673-12.283
    c-1.977-4.13-3.47-8.847-4.701-14.843c-1-4.877-1.212-9.996-1.386-16.183c-0.156-5.526,0.004-11.205,0.477-16.878
    c0.01-0.117,0.017-0.234,0.023-0.352c0.306-6.423,1.299-12.277,3.034-17.898c1.724-5.584,4.147-11.201,7.408-17.17
    c2.934-5.369,6.242-10.604,10.102-15.984c4.305-4.932,3.357-10.532,3.035-12.434c-0.019-0.108-0.038-0.216-0.055-0.324
    c-0.015-0.444-0.058-0.886-0.131-1.324c-0.727-4.363-1.025-8.755-1.34-13.405c-0.069-1.026-0.139-2.048-0.213-3.067
    c-0.376-5.199-0.708-10.708-0.279-15.885c0.366-4.414,0.799-8.252,1.576-11.855c4.311,0.519,8.614,1.347,12.836,2.473
    c5.729,1.527,11.354,3.873,15.615,5.745c4.593,2.019,9.451,4.602,14.848,7.895c4.712,2.875,9.438,6.536,13.873,10.038
    c2.212,1.747,5.06,2.479,7.841,2.015c3.011-0.501,6.065-1.021,9.119-1.541c2.947-0.501,5.894-1.002,8.801-1.487
    c2.605-0.306,5.012-0.807,7.343-1.292c2.046-0.426,3.98-0.829,5.752-1.026c3.703-0.413,7.519-0.407,11.26,0.009
    c3.271,0.393,6.495,0.697,9.613,0.991c2.975,0.281,5.784,0.546,8.58,0.877c4.337,0.515,8.759,1.184,13.036,1.831
    c1.595,0.241,3.187,0.482,4.777,0.716c1.179,0.173,2.357,0.343,3.537,0.512c4.837,0.694,9.406,1.35,13.944,2.287
    c5.371,1.108,10.839,2.666,16.915,4.438c3.277,0.956,6.816,0.174,9.386-2.074c3.463-3.03,7.673-5.592,11.743-8.069
    c3.895-2.37,8.171-4.508,12.698-6.772l0.289-0.145c1.908-0.781,3.715-1.643,5.465-2.478c2.88-1.374,5.601-2.671,8.031-3.235
    c1.914-0.444,4.411-0.816,7.011-0.625c1.19,3.719,2.168,7.955,3.003,12.978c1.108,6.669,1.467,12.58,1.097,18.069
    c-0.355,5.262-1.484,10.928-3.555,17.832c-0.258,0.86-0.398,1.75-0.418,2.647c-0.026,0.184-0.065,0.364-0.098,0.54
    c-0.355,1.934-1.269,6.893,2.306,11.108c0.768,1.022,1.542,2.049,2.319,3.081c2.124,2.816,4.319,5.729,6.408,8.597
    c2.707,3.718,5.271,7.352,6.876,10.941c1.746,4.09,2.971,8.609,3.853,14.217c0.729,4.621,1.433,10.033,1.132,15.132
    c-0.286,4.824-1.042,9.925-2.311,15.59c-0.812,3.618-2.139,7.307-3.544,11.213c-0.508,1.408-1.014,2.816-1.502,4.233
    c-0.731,2.127-1.384,4.231-2.015,6.267c-0.77,2.482-1.509,4.864-2.329,7.1c-1.772,1.432-2.762,3.091-3.308,4.603
    c-2.426,4.712-5.146,8.774-8.093,12.088c-3.137,3.526-7.434,6.459-11.983,9.564l-1.131,0.772
    c-4.342,2.97-8.442,5.773-12.678,7.442c-3.964,1.562-8.562,2.747-14.846,3.82c-2.833,0.149-4.953,0.925-6.701,1.737
    c-0.434,0.045-0.815,0.096-1.15,0.14c-0.6,0.078-0.823,0.105-1.153,0.105c-0.757,0-1.511,0.086-2.248,0.256
    c-6.73,1.553-12.33,2.524-17.625,3.059c-4.021,0.405-8.369,0.341-12.98,0.27c-1.809-0.026-3.62-0.054-5.43-0.054
    c-3.688,0-7.076,2.03-8.816,5.281c-1.74,3.252-1.55,7.197,0.496,10.266c1.999,2.998,4.627,4.9,6.547,6.29
    c0.487,0.353,1.174,0.85,1.56,1.177c0.404,0.758,0.772,1.4,1.109,1.989c0.404,0.705,0.753,1.313,1.126,2.06
    c0.114,0.229,0.237,0.453,0.369,0.673c2.836,4.728,4.29,8.438,4.575,11.672c0.305,3.467-0.43,7.577-2.245,12.566
    c-0.494,1.358-0.688,2.809-0.568,4.249c0.355,4.262,0.534,8.517,0.725,13.021c0.065,1.545,0.13,3.089,0.202,4.629
    c0.122,2.608,0.31,5.191,0.49,7.689c0.252,3.482,0.49,6.772,0.559,10.034l0.091,4.16c0.101,4.503,0.205,9.16,0.229,13.696
    c0.015,2.779-0.14,5.663-0.303,8.717c-0.163,3.055-0.332,6.213-0.332,9.412c0,2.271,0.772,4.474,2.191,6.247
    c0.757,0.946,1.557,2.177,2.402,3.479c3.106,4.781,7.362,11.33,16.097,13.825c0.362,0.104,0.73,0.187,1.102,0.248
    c1.874,0.313,3.758,0.47,5.661,0.47c5.583,0,11.326-1.35,17.406-4.077c2.968-1.331,5.806-2.838,8.549-4.295
    c2.429-1.289,4.729-2.511,7.018-3.564c4.649-1.773,8.863-4.01,12.943-6.176c1.135-0.602,2.271-1.205,3.411-1.794
    c1.351-0.698,2.719-1.374,4.09-2.053c3.979-1.968,8.094-4.003,12.147-6.651c4.801-3.14,9.65-6.642,14.894-10.762
    c5.341-4.273,10.247-8.662,14.576-12.534c5.215-4.663,9.941-9.495,13.878-13.607c4.217-4.404,8.712-9.221,13.009-14.592
    c0.065-0.082,0.13-0.164,0.192-0.248c1.21-1.613,2.566-3.098,4.002-4.67c1.614-1.768,3.445-3.771,5.235-6.158
    c0.024-0.032,0.049-0.065,0.072-0.098c2.795-3.823,4.948-7.689,7.03-11.429c1.024-1.84,1.991-3.577,2.992-5.23
    c0.896-1.48,1.813-2.94,2.728-4.396c2.446-3.897,4.976-7.928,7.142-12.327c2.182-4.435,3.874-8.899,5.51-13.218
    c0.595-1.569,1.189-3.141,1.808-4.705c2.727-6.898,4.8-12.642,6.524-18.076c0.335-1.056,0.675-2.114,1.015-3.174
    c1.554-4.843,3.16-9.85,4.516-15.105c0.211-0.815,0.317-1.655,0.317-2.498c0-0.421,0.014-1.037,0.027-1.664
    c1.452-3.281,2.205-6.061,2.327-8.575c0.363-3.24,0.526-6.397,0.684-9.455c0.132-2.55,0.256-4.957,0.487-7.309
    c0.5-5.096,0.849-10.516,1.128-17.575c0.066-1.677,0.18-3.373,0.3-5.17C279.221,283.137,279.506,278.879,279.241,274.383z
    M258.989,285.918c-0.124,1.853-0.252,3.769-0.329,5.718c-0.264,6.654-0.587,11.715-1.048,16.408
    c-0.276,2.813-0.419,5.568-0.556,8.234c-0.155,3.006-0.302,5.846-0.625,8.589c-0.025,0.22-0.044,0.44-0.056,0.662
    c-0.091,0.329-0.397,1.287-1.265,3.022c-0.694,1.388-1.056,2.919-1.056,4.472c0,0.445-0.016,1.109-0.03,1.773
    c-0.006,0.287-0.012,0.573-0.018,0.849c-1.156,4.318-2.546,8.65-3.894,12.852c-0.347,1.079-0.691,2.156-1.033,3.232
    c-1.583,4.985-3.509,10.316-6.062,16.776c-0.653,1.651-1.282,3.311-1.91,4.969c-1.538,4.06-2.991,7.894-4.752,11.473
    c-1.71,3.473-3.86,6.898-6.137,10.526c-0.971,1.545-1.943,3.097-2.896,4.669c-1.189,1.965-2.293,3.945-3.358,5.86
    c-1.859,3.338-3.615,6.492-5.667,9.307c-1.2,1.593-2.543,3.063-3.964,4.619c-1.585,1.734-3.376,3.696-5.135,6.024
    c-3.784,4.718-7.882,9.104-11.749,13.144c-3.671,3.835-8.058,8.322-12.764,12.53c-4.138,3.7-8.827,7.896-13.668,11.77
    c-4.714,3.704-9.102,6.874-13.411,9.692c-3.051,1.993-6.462,3.68-10.072,5.467c-1.475,0.729-2.945,1.457-4.401,2.209
    c-1.208,0.624-2.409,1.261-3.608,1.897c-3.784,2.009-7.358,3.905-10.931,5.244c-0.212,0.08-0.421,0.166-0.627,0.26
    c-2.943,1.338-5.721,2.813-8.406,4.238c-2.568,1.363-4.994,2.651-7.355,3.711c-4.19,1.881-7.664,2.597-10.879,2.229
    c-1.315-0.626-2.577-2.491-4.431-5.344c-0.411-0.633-0.845-1.301-1.306-1.983c0.058-1.68,0.149-3.404,0.245-5.189
    c0.171-3.207,0.349-6.523,0.331-9.888c-0.024-4.708-0.131-9.452-0.233-14.04l-0.09-4.131c-0.079-3.776-0.348-7.479-0.606-11.061
    c-0.18-2.482-0.35-4.827-0.46-7.182c-0.071-1.51-0.135-3.021-0.198-4.535c-0.161-3.82-0.327-7.75-0.61-11.703
    c2.29-6.94,3.154-13.189,2.64-19.045c-0.63-7.146-3.502-13.423-6.072-18.012c5.763-0.599,11.752-1.623,18.735-3.204
    c1.029-0.053,1.845-0.159,2.487-0.244c0.6-0.078,0.823-0.105,1.153-0.105c1.553,0,3.084-0.361,4.472-1.056l0.446-0.224
    c0.237-0.12,0.509-0.257,0.727-0.362c0.364-0.021,0.727-0.061,1.087-0.12c5.425-0.904,12.548-2.296,19.542-5.052
    c6.332-2.494,11.806-6.238,16.635-9.54l1.117-0.764c5.1-3.48,10.879-7.426,15.651-12.79c3.805-4.278,7.27-9.335,10.318-15.058
    c2.292-1.68,3.407-3.735,3.937-5.508c1.453-3.561,2.561-7.132,3.634-10.595c0.614-1.979,1.193-3.848,1.824-5.684
    c0.456-1.324,0.932-2.645,1.407-3.967c1.553-4.313,3.157-8.771,4.243-13.611c1.506-6.729,2.409-12.872,2.759-18.783
    c0.414-7.003-0.445-13.751-1.34-19.424c-1.151-7.319-2.82-13.373-5.254-19.049c-0.018-0.041-0.035-0.081-0.053-0.121
    c-2.399-5.397-5.632-10.011-9.012-14.651c-2.186-3.002-4.433-5.982-6.604-8.863c-0.192-0.255-0.385-0.51-0.576-0.764
    c2.292-7.865,3.568-14.585,4.006-21.059c0.476-7.055,0.043-14.478-1.322-22.695c-1.47-8.836-3.383-15.87-6.021-22.133
    c-1.08-2.566-3.182-4.565-5.798-5.517c-6.716-2.441-14.479-2.755-22.446-0.906c-4.554,1.057-8.573,2.975-12.12,4.667
    c-1.66,0.792-3.229,1.54-4.686,2.123c-0.259,0.104-0.512,0.217-0.761,0.342l-0.642,0.32c-4.909,2.455-9.546,4.773-14.151,7.575
    c-3.192,1.943-6.683,4.067-10.118,6.59c-4.602-1.304-8.983-2.458-13.488-3.387c-5.134-1.06-10.223-1.79-15.144-2.496
    c-1.155-0.166-2.311-0.332-3.468-0.502c-1.564-0.23-3.13-0.467-4.696-0.704c-4.433-0.67-9.016-1.363-13.671-1.916
    c-3.035-0.36-6.097-0.649-9.059-0.929c-2.993-0.282-6.09-0.574-9.193-0.946c-5.294-0.589-10.603-0.595-15.774-0.019
    c-2.709,0.302-5.202,0.821-7.613,1.323c-2.05,0.427-3.987,0.83-5.762,1.027c-0.18,0.02-0.36,0.045-0.54,0.075
    c-3.011,0.501-6.065,1.021-9.119,1.541c-1.575,0.268-3.15,0.536-4.719,0.801c-3.895-3.009-8.004-6.022-12.343-8.669
    c-6.167-3.763-11.799-6.75-17.217-9.131c-4.917-2.161-11.463-4.882-18.511-6.761c-6.084-1.622-12.313-2.737-18.535-3.318
    c-2.352-0.661-6.674-1.406-10.995,1.101c-3.506,2.035-5.826,5.542-6.9,10.429c-1.854,6.459-2.57,12.869-3.065,18.842
    c-0.548,6.606-0.17,13,0.263,18.984c0.071,0.988,0.139,1.98,0.206,2.975c0.321,4.732,0.652,9.618,1.465,14.718
    c0.016,0.242,0.037,0.475,0.061,0.697c-4.055,5.723-7.576,11.336-10.732,17.113c-3.912,7.159-6.845,13.983-8.968,20.862
    c-2.221,7.194-3.495,14.611-3.892,22.667c-0.522,6.35-0.698,12.716-0.523,18.922c0.194,6.928,0.463,13.188,1.786,19.639
    c1.567,7.636,3.553,13.818,6.252,19.458c3.452,7.213,7.047,12.792,11.313,17.561c0.124,0.138,0.25,0.272,0.381,0.403
    c1.264,1.264,2.542,2.084,3.389,2.626c0.114,0.073,0.229,0.145,0.34,0.219c0.247,0.228,0.505,0.442,0.774,0.645
    c7.156,5.367,14.066,9.333,21.128,12.125c8.065,3.188,16.388,4.583,23.465,5.526c0.438,0.059,0.88,0.088,1.322,0.088
    c0.843,0,2.212,0.321,3.662,0.661c1.886,0.442,4.158,0.976,6.694,1.14c2.765,0.708,5.425,1.024,7.923,1.207
    c-0.246,0.368-0.486,0.741-0.722,1.119c-3.539,5.656-5.781,11.625-6.645,17.597c-2.571,0.701-4.897,1.214-7.231,1.604
    l-1.009,0.169c-4.481,0.752-8.714,1.465-12.335,1.068c-3.814-0.415-7.667-1.627-11.454-3.601
    c-5.008-3.219-8.804-6.395-11.596-9.702c-2.688-3.185-4.83-7.336-6.739-13.065c-0.491-1.473-1.317-2.811-2.415-3.908
    c-4.184-4.185-9.228-7.87-15.875-11.598c-5.116-2.868-10.688-5.827-16.764-8.037c-1.095-0.398-2.252-0.603-3.418-0.603
    c-0.275,0-0.561-0.006-0.85-0.013c-1.46-0.811-3.58-1.792-6.262-1.792c-1.575,0-3.402-0.363-5.337-0.747
    c-4.702-0.934-11.142-2.214-18.011,1.222c-2.409,1.205-8.013,4.959-8.013,13.786c0,1.075,0.173,2.143,0.513,3.162
    c1.023,3.068,2.241,5.579,3.315,7.794c0.357,0.736,0.687,1.415,0.983,2.057c-0.102,0.368-0.183,0.745-0.243,1.13
    c-0.756,4.873,2.152,9.569,6.851,11.063c4.452,1.416,8.458,3.417,11.909,5.945c3.96,2.904,7.565,6.686,10.568,10.003
    c3.37,3.72,6.562,7.686,9.941,11.885l0.288,0.357c1.106,1.374,2.187,2.797,3.332,4.303c2.315,3.048,4.71,6.199,7.513,9.188
    c0.154,0.164,0.313,0.322,0.477,0.476c1.371,5.344,3.706,10.289,7.063,14.987c4.166,5.829,9.907,10.482,17.55,14.226
    c6.369,3.121,13.033,5.266,19.805,6.373c7.082,1.16,13.707,1.711,19.696,1.622c2.158-0.03,4.277-0.104,6.371-0.221
    c-0.213,2.544-0.401,5.103-0.55,7.725c-0.426,7.497,0.017,14.903,0.505,21.159c0.488,6.248,1.127,12.876,2.996,19.633
    c-0.036,0.009-0.071,0.019-0.105,0.027c-4.31-1.63-9.672-3.743-14.861-6.194c-5.097-2.408-10.134-5.271-15.275-8.238
    l-2.274-1.308c-4.451-2.556-8.656-4.969-12.592-7.686c-4.14-2.857-8.544-6.202-13.861-10.526
    c-4.329-3.52-8.731-7.395-13.084-11.518c-1.366-1.294-2.758-2.568-4.153-3.846c-3.049-2.791-5.929-5.428-8.496-8.237
    c-2.783-3.047-5.389-6.388-8.148-9.925c-0.96-1.23-1.921-2.463-2.845-3.626c-2.625-3.357-4.999-6.943-7.513-10.74
    c-0.878-1.326-1.755-2.65-2.642-3.964c-1.238-1.834-2.504-3.614-3.729-5.335c-2.312-3.25-4.495-6.318-6.294-9.449
    c-3.064-5.33-5.867-10.639-8.33-15.778c-2.907-6.068-5.25-11.162-7.236-16.295c-1.194-3.083-2.055-6.49-2.967-10.096
    c-0.577-2.282-1.173-4.641-1.884-7.026c-0.672-2.257-1.407-4.447-2.118-6.565c-1.22-3.636-2.373-7.07-3.078-10.424
    c-1.173-5.585-2.148-11.482-2.898-17.526c-0.644-5.189-0.845-10.509-1.06-16.141l-0.06-1.565
    c-0.204-5.29,0.05-10.675,0.319-16.375l0.063-1.335c0.069-1.49,0.125-2.984,0.181-4.481c0.172-4.612,0.334-8.968,0.895-13.22
    c0.495-3.761,1.411-7.633,2.38-11.733c0.443-1.873,0.886-3.75,1.296-5.638c0.152-0.698,0.229-1.41,0.229-2.125
    c0-1.391-0.247-2.675-0.489-3.762c1.358-5.105,2.999-10.212,4.468-14.782c0.346-1.076,0.687-2.153,1.028-3.229
    c1.486-4.687,2.89-9.114,4.589-13.327c1.304-3.235,3.009-6.455,4.813-9.864c0.982-1.855,1.997-3.773,2.973-5.745
    c0.749-1.515,1.481-3.042,2.213-4.571c1.858-3.881,3.614-7.546,5.651-10.98c3.024-5.094,6.012-10.06,9.311-14.797
    c2.169-3.115,4.687-6.176,7.353-9.417c1.179-1.434,2.364-2.875,3.535-4.338c0.219-0.274,0.424-0.56,0.613-0.855
    c0.232-0.13,0.561-0.302,0.982-0.512c1.206-0.603,2.311-1.482,3.183-2.51c3.932-4.63,7.646-9.004,11.644-12.92
    c4.541-4.447,9.394-8.5,13.113-11.534c3.246-2.646,6.825-5.02,10.613-7.531c1.237-0.82,2.473-1.64,3.697-2.469
    c0.973-0.658,1.942-1.321,2.911-1.984c4.023-2.751,7.823-5.349,11.751-7.54c5.244-2.924,10.505-5.587,15.64-7.914
    c3.999-1.813,8.222-3.304,12.692-4.883c1.242-0.438,2.484-0.877,3.723-1.323c1.091-0.393,2.18-0.791,3.27-1.188
    c4.61-1.683,8.964-3.272,13.369-4.486c3.678-1.014,7.549-1.71,11.646-2.448c1.872-0.337,3.745-0.674,5.609-1.043l1.7-0.336
    c5.401-1.07,10.503-2.082,15.646-2.719c6.105-0.757,12.312-1.148,17.577-1.431c5.212-0.28,10.819-0.364,17.639-0.262
    c0.161,0,0.323,0,0.483-0.004c6.032,0.231,11.684,0.648,17.253,1.273c5.333,0.6,10.982,1.484,17.777,2.783
    c5.408,1.034,11.131,2.382,17.495,4.123c2.391,0.653,4.756,1.202,7.043,1.732c3.704,0.859,7.202,1.67,10.392,2.821
    c3.864,1.393,7.695,3.195,11.751,5.102c1.567,0.737,3.135,1.474,4.71,2.19c5.25,2.388,10.819,4.967,16.127,7.929
    c0.959,0.535,1.921,1.067,2.885,1.6c4.474,2.474,8.7,4.81,12.647,7.466c2.987,2.009,5.884,4.469,8.95,7.073
    c1.623,1.379,3.303,2.805,5.047,4.205l1.268,1.016c4.16,3.333,8.104,6.493,11.775,9.925c2.041,2.69,4.41,4.525,6.194,5.907
    c0.53,0.411,1.178,0.913,1.492,1.202c3.204,3.458,6.306,7.257,9.307,10.933l1.004,1.229c2.753,3.366,5.27,6.942,7.934,10.728
    l1.598,2.267c2.336,3.299,4.436,6.825,6.657,10.559c0.608,1.021,1.217,2.044,1.831,3.063c2.436,4.041,5.272,8.859,7.842,13.962
    c0.94,1.866,1.921,3.673,2.869,5.42c1.666,3.069,3.239,5.968,4.437,8.878c1.354,3.293,2.466,6.844,3.642,10.603
    c0.483,1.544,0.969,3.093,1.474,4.638c1.625,4.975,3.104,10.1,4.393,15.236c0.342,1.695,0.711,3.381,1.079,5.064
    c0.695,3.176,1.353,6.176,1.795,9.127l0.069,0.46c0.73,4.876,1.486,9.919,2.504,15.006c0.293,1.466,0.273,2.996,0.249,4.933
    c-0.029,2.297-0.065,5.113,0.488,8.319C259.438,279.211,259.22,282.475,258.989,285.918z"/>
  <path d="M-105.91,380.865c3,2,5.909,2.138,8.909,3.138c-1,0-2.026,1.039-1.026,2.039c2,1,5.224-0.107,5.224-3.107
    c-1,0-1.196,1.089-2.196,1.089s-1.682-1.183-2.682-2.183c0-1-0.211-0.884-0.211-1.884c-2-4-5.923-0.77-7.923,1.23
    C-105.875,381.244-105.91,380.865-105.91,380.865z"/>
  <path d="M-115.113,371.453c4,1,6.025,5.194,11.025,4.194c-1,0-0.912,1.069-1.912,1.069c1,0,3.166,0.217,2.166-2.783
    c-1-2-4.184-0.88-5.184-3.88c-2,2-3.724,0.321-5.724,1.321C-114.935,371.507-115.113,371.453-115.113,371.453z"/>
  <path d="M-81.436,403c0,4-5.635,2.044-3.635,6.044c3,4,9.07,1.188,14.07,2.188c0-1,0.096-1.265,0.096-2.265
    c-1-2-5.249-1.738-7.249-2.738c-1-1-1.724-2.406-2.724-3.406C-81.056,402.699-81.436,403-81.436,403z"/>
  <path d="M-94.109,390.964c-1,3,2.32,4.825,2.32,7.825c1-2,6.222-0.789,6.222-3.789S-92,391.142-95,391.142
    c-0.5,0,0.494-0.293,0.993-0.313C-93.95,390.826-94.109,390.964-94.109,390.964z"/>

</svg>
