<svg xmlns="http://www.w3.org/2000/svg" version="1.1" viewBox="-198.662 52.379 469.436 463.526">

  <title xml:lang="en">LinkedIn</title>

  <style>

    svg {
      fill: rgb(54, 57, 69);
    }

  </style>

  <path d="M-69.272,254.737c-0.003-0.104-0.007-0.208-0.013-0.311c-0.157-2.666-0.108-5.448-0.057-8.393
    c0.048-2.727,0.097-5.547-0.017-8.458c-0.136-3.457-0.427-6.847-0.708-10.126c-0.209-2.445-0.408-4.754-0.544-7.067
    c-0.108-1.831-0.179-3.667-0.25-5.504c-0.147-3.812-0.3-7.751-0.762-11.796c-0.46-5.778-5.425-10.397-11.603-10.77
    c-6.362-0.759-12.082-0.641-17.617-0.529c-1.878,0.039-3.787,0.078-5.758,0.083c-1.043-0.084-2.085-0.171-3.125-0.257
    c-5.045-0.419-10.262-0.853-15.501-0.988c-4.637-0.117-9.198,0.02-13.607,0.154c-1.797,0.055-3.592,0.109-5.386,0.146
    c-2.03,0.042-4.063,0.057-6.098,0.073c-4.149,0.033-8.44,0.066-12.788,0.31c-3.84,0.215-7.661,0.603-11.356,0.979
    c-2.44,0.248-4.962,0.504-7.398,0.699c-2.792,0.224-5.361,1.607-7.084,3.814c-1.723,2.207-2.442,5.036-1.981,7.798
    c0.956,5.738,1.478,11.814,1.938,17.174l0.031,0.361c0.505,5.892,0.982,11.458,1.141,17.051c0.191,6.805,0.267,12.43,0.239,17.702
    c-0.015,2.865,0.036,5.719,0.086,8.48c0.059,3.273,0.114,6.365,0.068,9.463c-0.028,1.918-0.065,3.837-0.102,5.756
    c-0.076,3.978-0.155,8.089-0.158,12.182c-0.167,3.399-0.467,6.8-0.784,10.395c-0.214,2.433-0.428,4.865-0.602,7.301
    c-0.325,4.572-0.738,9.264-1.136,13.801l-0.366,4.183c-0.253,2.925-0.438,5.849-0.616,8.677c-0.206,3.253-0.399,6.325-0.688,9.407
    c-0.289,3.076-0.537,6.157-0.785,9.242c-0.239,2.965-0.477,5.932-0.754,8.899c-0.248,2.655-0.631,5.344-1.037,8.19
    c-0.458,3.211-0.931,6.532-1.223,9.961c-0.32,3.759-0.535,7.525-0.742,11.168c-0.136,2.384-0.271,4.77-0.437,7.153
    c-0.156,2.252-0.345,4.505-0.534,6.76c-0.315,3.774-0.642,7.678-0.83,11.721l-0.081,2.148c-0.18,4.755-0.366,9.672-0.365,14.63
    c0,3.322,0.203,6.55,0.399,9.671c0.152,2.415,0.295,4.696,0.344,6.948c0.053,2.434,0.023,4.885-0.008,7.48
    c-0.035,2.919-0.072,5.938,0.017,9.004c0.1,3.448,0.164,6.892,0.228,10.329c0.038,2.001,0.075,4.001,0.119,5.997
    c0.049,2.221,0.133,4.438,0.217,6.648c0.125,3.304,0.244,6.424,0.244,9.522c0,4.658,3.222,8.714,7.761,9.759
    c1.341,0.31,2.688,0.333,3.977,0.103c2.408,0.012,4.815,0.046,7.224,0.08c3.047,0.043,6.094,0.086,9.142,0.086
    c2.818,0,5.644,0.103,8.636,0.212c3.039,0.111,6.182,0.226,9.364,0.226c3.326,0,6.542-0.21,9.651-0.413
    c2.918-0.19,5.675-0.37,8.349-0.37c3.04,0,6.08-0.036,9.12-0.072c2.96-0.036,5.92-0.071,8.88-0.071l18,0.007
    c2.958,0,5.839,0.036,8.721,0.072c2.963,0.036,5.927,0.073,8.969,0.073c3.466,0,6.685-1.795,8.506-4.743
    c1.822-2.947,1.988-6.629,0.438-9.729c-1.435-2.87-2.047-5.017-2.047-7.178c0-0.551-0.045-1.101-0.136-1.644
    c-0.401-2.406-0.508-4.799-0.622-7.332c-0.125-2.792-0.267-5.946-0.825-9.422c-0.602-5.579-1.215-11.505-1.574-17.38
    c-0.115-1.869-0.246-3.736-0.378-5.602c-0.298-4.217-0.579-8.199-0.661-12.165c-0.146-7.049-0.184-12.727-0.117-17.867
    c0.038-2.892,0.333-5.898,0.646-9.081c0.28-2.841,0.569-5.779,0.688-8.819c0.075-1.899,0.14-3.798,0.206-5.696
    c0.14-4.049,0.284-8.235,0.519-12.288c0.11-1.909,0.216-3.819,0.321-5.728c0.223-4.052,0.454-8.241,0.735-12.322
    c0.212-3.076,0.34-6.141,0.463-9.104c0.13-3.126,0.252-6.079,0.465-9.032c0.201-2.771,0.474-5.521,0.762-8.433
    c0.313-3.163,0.637-6.435,0.861-9.736c0.263-3.876,0.452-7.772,0.635-11.542c0.109-2.249,0.218-4.498,0.343-6.748
    c0.137-2.477,0.342-4.947,0.559-7.563c0.29-3.496,0.59-7.111,0.72-10.793c0.186-5.26,0.221-10.55,0.255-15.666l0.02-2.812
    c0.03-3.923-0.191-7.75-0.405-11.451C-69.075,259.366-69.208,257.051-69.272,254.737z M-88.547,275.947
    c-0.033,4.975-0.067,10.119-0.243,15.093c-0.113,3.208-0.381,6.432-0.664,9.845c-0.219,2.636-0.445,5.36-0.597,8.11
    c-0.127,2.295-0.238,4.59-0.35,6.885c-0.178,3.675-0.362,7.475-0.612,11.158c-0.203,2.992-0.498,5.968-0.81,9.118
    c-0.289,2.913-0.587,5.925-0.807,8.962c-0.235,3.261-0.37,6.506-0.5,9.644c-0.123,2.96-0.239,5.755-0.432,8.56
    c-0.291,4.219-0.526,8.479-0.752,12.598c-0.104,1.89-0.208,3.78-0.318,5.671c-0.248,4.287-0.396,8.592-0.54,12.756
    c-0.064,1.866-0.128,3.733-0.202,5.602c-0.096,2.45-0.345,4.973-0.607,7.644c-0.34,3.46-0.693,7.038-0.741,10.782
    c-0.069,5.37-0.032,11.261,0.119,18.539c0.092,4.463,0.405,8.884,0.707,13.159c0.127,1.804,0.255,3.608,0.365,5.415
    c0.392,6.397,1.045,12.685,1.682,18.576c0.021,0.19,0.047,0.381,0.079,0.569c0.401,2.406,0.508,4.799,0.622,7.332
    c0.119,2.662,0.253,5.653,0.75,8.938c0.006,0.224,0.014,0.446,0.025,0.669c-1.527-0.015-3.065-0.024-4.624-0.024l-18-0.007
    c-3.04,0-6.08,0.036-9.12,0.072c-2.96,0.035-5.92,0.071-8.88,0.071c-3.326,0-6.542,0.21-9.651,0.413
    c-2.918,0.19-5.675,0.37-8.349,0.37c-2.818,0-5.644-0.104-8.636-0.212c-3.039-0.111-6.182-0.226-9.364-0.226
    c-2.784,0-5.568-0.037-8.353-0.077c-0.003-0.077-0.006-0.154-0.009-0.231c-0.08-2.105-0.161-4.216-0.207-6.331
    c-0.043-1.973-0.08-3.949-0.117-5.928c-0.065-3.507-0.13-7.021-0.233-10.537c-0.077-2.655-0.044-5.339-0.01-8.181
    c0.033-2.648,0.066-5.388,0.005-8.161c-0.058-2.659-0.221-5.256-0.379-7.767c-0.185-2.942-0.36-5.721-0.36-8.417
    c-0.001-4.579,0.178-9.304,0.351-13.872l0.077-2.069c0.167-3.579,0.463-7.13,0.778-10.89c0.196-2.348,0.392-4.693,0.555-7.04
    c0.171-2.468,0.312-4.937,0.452-7.403c0.208-3.665,0.405-7.127,0.702-10.605c0.244-2.865,0.658-5.768,1.095-8.839
    c0.421-2.957,0.856-6.015,1.149-9.15c0.286-3.052,0.531-6.105,0.777-9.156c0.241-2.996,0.481-5.989,0.762-8.977
    c0.318-3.386,0.531-6.757,0.736-10.017c0.179-2.839,0.349-5.521,0.582-8.215l0.363-4.153c0.406-4.618,0.826-9.395,1.163-14.133
    c0.166-2.322,0.371-4.643,0.575-6.964c0.327-3.712,0.666-7.552,0.85-11.431c0.007-0.158,0.011-0.317,0.011-0.476
    c0-3.981,0.079-8.08,0.155-12.042c0.037-1.948,0.074-3.895,0.104-5.843c0.05-3.426-0.011-6.829-0.07-10.119
    c-0.05-2.769-0.097-5.383-0.083-8.015c0.029-5.5-0.049-11.336-0.247-18.373c-0.175-6.167-0.699-12.282-1.206-18.194l-0.031-0.362
    c-0.222-2.582-0.457-5.319-0.748-8.144c2.678-0.265,5.262-0.499,7.822-0.642c3.867-0.217,7.732-0.247,11.825-0.279
    c2.118-0.017,4.234-0.033,6.349-0.076c1.861-0.038,3.724-0.095,5.587-0.152c4.324-0.132,8.407-0.255,12.484-0.151
    c4.667,0.12,9.375,0.512,14.358,0.926c1.195,0.1,2.392,0.199,3.59,0.295c0.266,0.021,0.531,0.032,0.797,0.032
    c2.285,0,4.459-0.044,6.563-0.087c3.33-0.069,6.379-0.131,9.424-0.019c0.062,1.274,0.112,2.571,0.163,3.893
    c0.077,1.971,0.154,3.94,0.27,5.906c0.152,2.58,0.371,5.131,0.583,7.599c0.274,3.193,0.533,6.209,0.65,9.202
    c0.092,2.343,0.049,4.762,0.004,7.324c-0.055,3.141-0.111,6.387,0.079,9.757c0.073,2.562,0.219,5.086,0.36,7.529
    c0.204,3.536,0.397,6.875,0.373,10.146L-88.547,275.947z"/>
  <path d="M270.269,304.509c-0.14-2.274-0.283-4.626-0.374-6.9c-0.01-0.235-0.027-0.47-0.054-0.704
    c-1.064-9.586-2.838-17.957-4.876-27.126c-0.074-0.335-0.166-0.667-0.275-0.994c-1.476-4.428-3.403-8.368-5.268-12.178
    c-0.536-1.096-1.071-2.189-1.591-3.289c-0.556-1.175-1.081-2.368-1.608-3.56c-1.658-3.754-3.538-8.008-6.352-11.985
    c-3.437-4.859-7.422-9.378-11.798-13.389c-4.231-3.929-8.614-6.979-12.852-9.93c-0.837-0.583-1.67-1.162-2.494-1.745
    c-5.454-3.852-10.929-7.109-16.737-9.957c-4.065-1.993-8.366-3.713-13.533-5.398c-1.546-1.2-3.42-2.006-5.521-2.313
    c-0.715-0.217-1.465-0.356-2.241-0.408c-5.277-0.351-10.35-0.34-15.264-0.332c-2.516,0.007-4.889,0.01-7.273-0.031
    c-7.069-0.12-15.079-0.26-23.472,0.858c-0.14,0.019-0.279,0.041-0.418,0.065c-7.569,1.336-14.365,3.775-20.676,6.16
    c-6.096,2.302-13.004,4.912-19.54,8.718c-5.821,3.39-11.994,7.139-17.697,11.576c-4.03,3.135-7.469,6.605-10.795,9.961
    c-0.666,0.672-1.315,1.329-1.959,1.97c-0.003-0.352-0.007-0.703-0.011-1.054c-0.05-4.86-0.101-9.886-0.448-14.955
    c-0.44-6.418-1.198-12.982-2.316-20.068c-0.768-4.861-4.957-8.44-9.878-8.44c-3.364,0-6.721,0.048-9.967,0.095
    c-3.151,0.046-6.41,0.093-9.582,0.093l-19.601-0.006c-3.001,0-6.045-0.162-9.267-0.333c-3.341-0.178-6.796-0.362-10.329-0.362
    c-3.395,0-6.78,0.094-10.055,0.185c-3.294,0.091-6.406,0.178-9.547,0.178c-3.414,0-6.729,0.112-9.934,0.221
    c-3.203,0.108-6.228,0.211-9.351,0.211c-5.47,0-9.925,4.396-9.999,9.865c-0.038,2.838-0.232,5.646-0.438,8.618
    c-0.211,3.047-0.429,6.198-0.481,9.517c-0.05,3.176-0.006,6.331,0.037,9.382c0.044,3.15,0.086,6.125,0.032,9.107
    c-0.057,3.155-0.162,6.399-0.264,9.537c-0.097,2.979-0.193,5.959-0.254,8.94c-0.063,3.081-0.189,6.262-0.313,9.337
    c-0.119,2.98-0.243,6.062-0.312,9.136c-0.071,3.135-0.068,6.264-0.065,9.289c0.003,3.176,0.006,6.176-0.069,9.197
    c-0.082,3.297-0.189,6.594-0.298,9.89c-0.094,2.863-0.188,5.727-0.264,8.588c-0.082,3.019-0.123,6.039-0.164,9.06
    c-0.042,3.103-0.085,6.311-0.176,9.422c-0.094,3.192-0.085,6.36-0.077,9.423c0.008,3.14,0.017,6.104-0.077,9.067
    c-0.087,2.762-0.375,5.606-0.679,8.618c-0.319,3.165-0.65,6.438-0.764,9.831c-0.111,3.3-0.058,6.533-0.005,9.659
    c0.051,3.077,0.1,5.983-0.003,8.838c-0.221,6.156-0.453,12.313-0.689,18.471c-0.11,2.884-0.36,5.796-0.624,8.88
    c-0.265,3.098-0.54,6.302-0.673,9.604c-0.142,3.829-0.081,7.615-0.022,11.277c0.03,1.839,0.06,3.682,0.063,5.526
    c0.007,3.957,0.142,7.91,0.272,11.733c0.056,1.643,0.112,3.287,0.158,4.93c0.064,2.315,0.054,4.646,0.043,7.114
    c-0.013,3.061-0.027,6.225,0.109,9.445c0.107,2.552,0.178,5.103,0.249,7.649c0.08,2.869,0.162,5.836,0.296,8.786
    c0.128,2.822,0.364,5.572,0.591,8.231c0.24,2.8,0.466,5.445,0.562,8.041c0.101,2.72,1.305,5.28,3.335,7.092
    c2.029,1.813,4.707,2.715,7.425,2.51c1.59-0.122,3.194-0.253,4.809-0.385c4.857-0.397,9.879-0.807,14.773-0.988
    c1.688-0.063,3.376-0.116,5.06-0.171c5.001-0.16,10.172-0.326,15.217-0.711c3.574-0.193,7.276-0.146,11.191-0.097
    c2.181,0.028,4.369,0.055,6.563,0.043c2.909-0.018,5.819,0.045,8.896,0.112c3.076,0.066,6.262,0.133,9.446,0.116
    c6.123-0.037,12.747-0.245,19.157-0.602c2.677-0.148,5.183-1.367,6.953-3.381c1.771-2.014,2.659-4.654,2.465-7.328
    c-0.142-1.949-0.309-3.928-0.476-5.918c-0.349-4.137-0.709-8.413-0.819-12.375c-0.051-1.855-0.117-3.713-0.184-5.57
    c-0.155-4.337-0.302-8.433-0.263-12.542c0.027-2.971,0.319-6.062,0.629-9.334c0.269-2.844,0.547-5.785,0.664-8.827
    c0.115-3.024,0.087-5.987,0.06-8.853c-0.031-3.291-0.061-6.399,0.12-9.418c0.193-3.235,0.509-6.464,0.843-9.883
    c0.267-2.729,0.543-5.553,0.752-8.395c0.228-3.084,0.356-6.146,0.48-9.109c0.136-3.218,0.264-6.258,0.506-9.283
    c0.236-2.946,0.539-5.984,0.833-8.923c0.309-3.091,0.627-6.288,0.881-9.487c0.286-3.616,0.505-7.246,0.716-10.757
    c0.155-2.59,0.311-5.179,0.493-7.763c0.186-2.614,0.456-5.208,0.742-7.954c0.232-2.228,0.471-4.505,0.662-6.825
    c2.625-2.947,4.773-5.846,6.723-8.477c0.247-0.334,0.494-0.667,0.741-0.999c1.31-1.138,2.612-2.254,3.909-3.364
    c2.442-2.092,4.968-4.254,7.464-6.505c1.357-1.226,2.672-2.477,3.943-3.687c2.358-2.245,4.592-4.37,7.039-6.304
    c0.687-0.447,1.336-0.839,2.02-1.249c1.674-1.008,3.542-2.131,5.453-3.863c3.181-2.045,6.639-3.754,10.811-5.347
    c4.083-1.559,8.439-3.153,12.853-4.036c0.636-0.128,2.203,0.415,3.864,0.989c1.47,0.507,3.103,1.071,4.979,1.52
    c3.522,1.606,6.019,3.796,8.024,7.018c2.417,3.881,4.65,8.565,6.55,12.708c-0.153,1.753-0.376,3.571-0.606,5.463
    c-0.377,3.091-0.767,6.288-0.907,9.614c-0.134,3.156-0.131,6.264-0.129,9.269c0.003,2.799,0.005,5.442-0.096,8.061
    c-0.119,3.082-0.158,6.153-0.195,9.124c-0.036,2.828-0.069,5.499-0.166,8.189c-0.109,3.024-0.201,6.05-0.294,9.076
    c-0.084,2.737-0.167,5.475-0.264,8.218c-0.091,2.625-0.321,5.296-0.565,8.125c-0.254,2.947-0.518,5.995-0.627,9.128
    c-0.108,3.113-0.058,6.153-0.009,9.094c0.048,2.855,0.093,5.553-0.003,8.192c-0.094,2.571-0.37,5.228-0.664,8.04
    c-0.308,2.953-0.626,6.008-0.75,9.178c-0.118,3.009-0.119,5.973-0.121,8.839c-0.001,2.925-0.002,5.687-0.119,8.415
    c-0.118,2.728-0.37,5.485-0.637,8.405c-0.26,2.844-0.528,5.784-0.674,8.788c-0.154,3.19-0.076,6.256-0.001,9.221
    c0.072,2.825,0.141,5.494,0.002,8.022c-0.154,2.782-0.444,5.601-0.751,8.584c-0.288,2.79-0.585,5.677-0.771,8.606
    c-0.169,2.655,0.728,5.269,2.49,7.261c1.763,1.993,4.247,3.201,6.902,3.356c3.901,0.229,7.787,0.305,11.544,0.377
    c1.935,0.037,3.866,0.073,5.795,0.132c3.977,0.12,7.929,0.1,11.755,0.079c1.841-0.011,3.68-0.021,5.521-0.014
    c2.234,0.008,4.472,0.076,6.84,0.149c2.559,0.078,5.183,0.159,7.854,0.159c0.854,0,1.715-0.009,2.578-0.027
    c3.803-0.084,7.577-0.298,11.228-0.504c2.001-0.113,4.002-0.227,6.007-0.318c2.244-0.103,4.482-0.153,6.854-0.208
    c3.367-0.076,6.85-0.155,10.377-0.396c5.9-0.4,12.012-0.938,16.957-1.374c2.882-0.174,5.896-1.473,7.979-4.065
    c2.377-1.884,3.789-4.764,3.789-7.838c0-3.031-0.11-6.06-0.218-8.988c-0.121-3.315-0.235-6.448-0.197-9.503
    c0.038-3.105,0.202-6.218,0.376-9.513c0.15-2.861,0.306-5.82,0.374-8.808c0.059-2.559,0.097-5.116,0.135-7.676
    c0.052-3.512,0.105-7.144,0.216-10.675c0.101-3.203,0.276-6.371,0.463-9.725c0.156-2.812,0.318-5.719,0.43-8.627
    c0.122-3.229,0.093-6.398,0.065-9.463c-0.028-3.11-0.056-6.047,0.068-8.935c0.13-3.042,0.333-6.054,0.549-9.243
    c0.2-2.977,0.408-6.054,0.549-9.14c0.136-2.976,0.344-5.924,0.563-9.045c0.215-3.045,0.438-6.193,0.587-9.416
    c0.14-3.483,0.069-6.855,0.002-10.116c-0.062-2.952-0.119-5.74-0.023-8.447c0.092-2.549,0.235-5.178,0.375-7.72
    c0.194-3.551,0.396-7.224,0.472-10.923c0.048-2.364,0.146-4.714,0.248-7.201c0.155-3.747,0.315-7.621,0.296-11.563
    C270.751,312.387,270.506,308.382,270.269,304.509z M250.494,327.184c-0.103,2.48-0.209,5.046-0.262,7.619
    c-0.068,3.356-0.252,6.699-0.445,10.238c-0.145,2.635-0.294,5.359-0.393,8.1c-0.116,3.272-0.05,6.478,0.015,9.576
    s0.125,6.025,0.013,8.837c-0.136,2.92-0.34,5.812-0.556,8.873c-0.219,3.106-0.445,6.318-0.592,9.542
    c-0.131,2.866-0.322,5.701-0.525,8.703c-0.214,3.169-0.436,6.446-0.576,9.734c-0.146,3.406-0.115,6.744-0.086,9.972
    c0.027,2.965,0.053,5.765-0.052,8.522c-0.104,2.73-0.261,5.549-0.412,8.274c-0.186,3.325-0.376,6.765-0.484,10.211
    c-0.116,3.695-0.171,7.411-0.224,11.005c-0.037,2.505-0.074,5.009-0.131,7.514c-0.062,2.689-0.203,5.373-0.353,8.213
    c-0.177,3.349-0.358,6.811-0.401,10.318c-0.044,3.542,0.085,7.068,0.209,10.479c0.01,0.273,0.02,0.546,0.029,0.817
    c-3.421,0.289-6.631,0.543-9.906,0.766c-3.079,0.209-6.187,0.28-9.476,0.355c-2.38,0.054-4.841,0.11-7.313,0.224
    c-2.075,0.095-4.148,0.211-6.222,0.328c-3.642,0.206-7.081,0.4-10.541,0.477c-3.039,0.072-6.117-0.025-9.377-0.127
    c-2.397-0.073-4.877-0.149-7.387-0.158c-0.41-0.001-0.82-0.002-1.231-0.002c-1.487,0-2.976,0.008-4.463,0.016
    c-3.816,0.021-7.421,0.039-11.045-0.069c-1.999-0.061-4.006-0.1-6.014-0.139c-0.136-0.002-0.271-0.005-0.407-0.008
    c0.23-2.312,0.443-4.675,0.577-7.076c0.184-3.337,0.102-6.54,0.022-9.637c-0.069-2.721-0.136-5.29-0.017-7.74
    c0.125-2.579,0.363-5.183,0.614-7.939c0.276-3.026,0.563-6.154,0.7-9.361c0.137-3.156,0.138-6.264,0.139-9.269
    c0.001-2.799,0.003-5.442,0.105-8.065c0.099-2.523,0.37-5.128,0.658-7.886c0.314-3.02,0.641-6.142,0.758-9.388
    c0.115-3.169,0.064-6.262,0.015-9.252c-0.047-2.812-0.092-5.467-0.001-8.064c0.091-2.619,0.321-5.284,0.564-8.104
    c0.255-2.957,0.52-6.014,0.628-9.148c0.097-2.769,0.182-5.536,0.266-8.304c0.092-2.99,0.183-5.979,0.29-8.967
    c0.105-2.924,0.143-5.839,0.178-8.658c0.037-2.973,0.073-5.781,0.182-8.604c0.116-3.013,0.114-5.979,0.111-8.848
    c-0.002-2.922-0.004-5.682,0.111-8.407c0.107-2.536,0.434-5.209,0.778-8.039c0.363-2.98,0.738-6.061,0.89-9.256
    c0.075-1.586-0.228-3.166-0.884-4.61c-2.878-6.331-5.527-12.003-8.826-17.299c-4.361-7.003-10.267-11.985-18.053-15.23
    c-0.607-0.253-1.239-0.446-1.886-0.575c-1.038-0.208-2.184-0.604-3.51-1.062c-3.528-1.219-8.358-2.889-14.318-1.697
    c-5.93,1.186-11.186,3.101-16.063,4.962c-5.899,2.251-10.808,4.741-15.448,7.833c-0.548,0.365-1.06,0.784-1.525,1.25
    c-0.451,0.452-1.12,0.862-2.469,1.674c-0.854,0.514-1.918,1.153-3.104,1.944c-0.203,0.135-0.401,0.278-0.594,0.428
    c-3.349,2.605-6.14,5.262-8.839,7.831c-1.231,1.172-2.395,2.278-3.553,3.324c-2.303,2.076-4.621,4.062-7.075,6.163
    c-1.611,1.38-3.231,2.768-4.86,4.192c-0.523,0.458-0.998,0.97-1.415,1.526c-0.48,0.642-0.957,1.284-1.435,1.928
    c-2.366,3.193-4.602,6.21-7.453,9.061c-1.742,1.742-2.779,4.066-2.914,6.526c-0.17,3.118-0.496,6.241-0.841,9.548
    c-0.291,2.788-0.592,5.671-0.801,8.618c-0.188,2.654-0.348,5.313-0.507,7.974c-0.206,3.418-0.418,6.952-0.689,10.378
    c-0.237,2.995-0.546,6.089-0.845,9.081c-0.303,3.033-0.616,6.171-0.867,9.311c-0.273,3.402-0.415,6.777-0.553,10.041
    c-0.123,2.937-0.24,5.711-0.443,8.479c-0.192,2.603-0.444,5.186-0.712,7.919c-0.337,3.452-0.687,7.022-0.902,10.636
    c-0.221,3.709-0.188,7.313-0.154,10.799c0.026,2.753,0.051,5.353-0.046,7.898c-0.096,2.48-0.336,5.021-0.59,7.711
    c-0.336,3.544-0.683,7.21-0.718,11.03c-0.042,4.559,0.119,9.074,0.275,13.441c0.064,1.804,0.129,3.607,0.179,5.41
    c0.082,2.972,0.276,5.96,0.505,8.91c-2.692,0.077-5.35,0.124-7.912,0.14c-2.913,0.017-5.819-0.045-8.895-0.112
    c-3.076-0.065-6.253-0.133-9.445-0.116c-2.066,0.011-4.132-0.016-6.19-0.041c-4.114-0.054-8.371-0.108-12.658,0.131
    c-0.071,0.004-0.141,0.009-0.212,0.014c-4.635,0.356-9.396,0.51-14.438,0.672c-1.716,0.055-3.437,0.11-5.158,0.174
    c-3.499,0.13-6.958,0.358-10.355,0.617c-0.174-2.069-0.33-4.059-0.42-6.041c-0.126-2.773-0.206-5.649-0.283-8.43
    c-0.073-2.645-0.147-5.291-0.258-7.939c-0.117-2.758-0.105-5.555-0.092-8.517c0.011-2.517,0.022-5.118-0.051-7.756
    c-0.047-1.687-0.104-3.372-0.162-5.057c-0.131-3.832-0.254-7.452-0.26-11.083c-0.003-1.94-0.034-3.88-0.065-5.815
    c-0.057-3.558-0.111-6.917,0.01-10.181c0.114-2.819,0.358-5.663,0.616-8.674c0.272-3.179,0.554-6.466,0.682-9.821
    c0.237-6.173,0.469-12.345,0.691-18.516c0.122-3.381,0.066-6.69,0.013-9.891c-0.05-3.012-0.098-5.855-0.003-8.652
    c0.092-2.725,0.375-5.527,0.675-8.495c0.325-3.218,0.661-6.544,0.77-9.997c0.104-3.306,0.095-6.583,0.087-9.753
    c-0.009-3.039-0.017-5.909,0.068-8.783c0.095-3.27,0.14-6.557,0.183-9.735c0.04-2.931,0.079-5.861,0.159-8.791
    c0.076-2.824,0.168-5.648,0.261-8.473c0.11-3.35,0.22-6.699,0.303-10.049c0.081-3.279,0.078-6.55,0.075-9.712
    c-0.003-3.044-0.006-5.919,0.06-8.818c0.065-2.901,0.185-5.895,0.301-8.789c0.127-3.173,0.258-6.454,0.325-9.73
    c0.059-2.9,0.153-5.799,0.248-8.699c0.104-3.208,0.211-6.525,0.271-9.824c0.06-3.302,0.014-6.58-0.031-9.749
    c-0.042-3.038-0.083-5.908-0.038-8.786c0.044-2.785,0.234-5.537,0.437-8.451c0.001-0.023,0.003-0.046,0.004-0.069
    c0.17-0.006,0.339-0.012,0.508-0.017c3.179-0.108,6.181-0.209,9.257-0.209c3.419,0,6.816-0.094,10.102-0.186
    c3.282-0.091,6.382-0.177,9.5-0.177c3.001,0,6.044,0.162,9.266,0.333c3.341,0.178,6.797,0.362,10.33,0.362l19.601,0.006
    c3.316,0,6.648-0.048,9.871-0.095c0.328-0.005,0.658-0.009,0.989-0.014c0.402,3.354,0.711,6.601,0.93,9.797
    c0.308,4.487,0.354,9.007,0.402,13.791c0.018,1.691,0.035,3.381,0.064,5.068c0.046,2.68,0.127,5.308,0.209,7.916
    c0.118,3.789,0.229,7.368,0.229,11.012c0,4.124,2.531,7.825,6.374,9.32c3.845,1.494,8.21,0.478,10.997-2.562
    c2.926-3.191,6.095-6.136,9.449-9.253c1.359-1.262,2.726-2.532,4.093-3.834c1.649-1.569,3.23-3.166,4.761-4.709
    c3.011-3.039,5.854-5.909,8.867-8.252c4.508-3.507,9.449-6.565,15.481-10.078c5.097-2.968,10.915-5.166,16.543-7.292
    c5.362-2.026,11.08-4.089,16.879-5.137c6.835-0.89,13.663-0.772,20.274-0.658c2.577,0.044,5.159,0.04,7.657,0.034
    c2.216-0.003,4.372-0.008,6.507,0.019c1.476,0.859,3.192,1.352,5.023,1.352c0.22,0,0.439-0.003,0.659-0.009
    c2.017,1.273,4.427,1.784,6.779,1.441c3.289,1.147,6.112,2.314,8.748,3.606c4.845,2.375,9.425,5.101,14.002,8.334
    c0.861,0.608,1.731,1.214,2.605,1.823c3.841,2.674,7.469,5.199,10.719,8.216c3.375,3.094,6.414,6.539,9.03,10.238
    c1.657,2.342,2.982,5.342,4.386,8.519c0.596,1.348,1.192,2.695,1.819,4.022c0.558,1.18,1.133,2.355,1.709,3.533
    c1.568,3.206,3.054,6.243,4.103,9.254c1.834,8.27,3.426,15.841,4.366,24.123c0.099,2.361,0.242,4.695,0.38,6.957
    c0.23,3.765,0.448,7.32,0.467,10.82C250.79,320.027,250.646,323.503,250.494,327.184z"/>
  <path d="M-179.366,151.211c4.9,5.475,11.005,10.182,18.148,13.989c6.687,3.564,13.382,5.795,19.938,6.648
    c1.063,0.376,2.191,0.575,3.34,0.575c0.469,0,0.942-0.033,1.416-0.101c9.394-1.342,16.635-3.384,22.768-6.422
    c6.433-2.94,11.915-6.381,16.756-10.517c4.456-3.809,8.448-8.374,12.947-14.801c0.281-0.401,0.532-0.823,0.751-1.262
    c0.997-1.993,1.845-3.682,2.694-5.371c0.854-1.7,1.709-3.4,2.712-5.407c0.109-0.218,0.21-0.44,0.303-0.665
    c3.667-8.907,2.556-17.377,1.401-22.974c-1.27-6.153-3.901-12.401-8.045-19.1c-3.638-5.88-7.512-11.076-11.514-15.441
    c-0.098-0.106-0.198-0.211-0.3-0.313c-6.865-6.865-13.208-11.333-19.96-14.057c-8.089-3.267-16.885-4.348-25.435-3.125
    c-9.189,1.313-17.527,5.546-24.472,9.515c-0.395,0.226-0.774,0.479-1.135,0.756c-5.354,4.118-9.562,8.168-12.864,12.382
    c-3.284,4.19-5.518,8.725-7.49,12.725c-0.378,0.768-0.756,1.534-1.139,2.293l-0.86,1.698c-2.15,4.234-4.373,8.612-6.079,13.391
    c-0.385,1.08-0.583,2.217-0.583,3.363c0,8.047,1.509,15.979,4.362,22.936C-188.944,138.66-184.792,145.149-179.366,151.211z
     M-171.573,101.291l0.884-1.744c0.411-0.815,0.816-1.637,1.222-2.459c1.691-3.432,3.289-6.673,5.293-9.231
    c2.156-2.751,5.032-5.52,8.781-8.451c4.908-2.777,11.117-5.93,16.776-6.739c5.063-0.724,10.292-0.077,15.12,1.872
    c4.075,1.645,8.377,4.752,13.147,9.497c3.067,3.371,6.211,7.615,9.104,12.29c2.89,4.672,4.678,8.8,5.466,12.62
    c0.972,4.711,0.915,8.132-0.192,11.027c-0.917,1.833-1.711,3.415-2.506,4.997c-0.757,1.507-1.515,3.014-2.376,4.734
    c-3.311,4.669-6.147,7.917-9.14,10.476c-3.436,2.936-7.428,5.418-12.203,7.589c-0.112,0.051-0.224,0.104-0.334,0.159
    c-3.745,1.873-8.414,3.238-14.57,4.25c-0.049-0.004-0.099-0.009-0.148-0.013c-4.577-0.352-9.476-1.905-14.561-4.615
    c-5.064-2.7-9.321-5.956-12.652-9.678c-3.848-4.299-6.87-8.98-8.738-13.537c-1.676-4.086-2.646-8.759-2.833-13.609
    C-174.812,107.669-173.231,104.557-171.573,101.291z"/>

</svg>
