<svg xmlns="http://www.w3.org/2000/svg" version="1.1" viewBox="-204.762 88.12 477.721 390.316">

  <title xml:lang="en">Twitter</title>

  <path d="M267.615,134.313c-3.287-1.729-7.262-1.494-10.321,0.611c-3.736,2.569-7.908,4.868-12.993,7.15
    c0.409-0.686,0.803-1.358,1.184-2.014c2.05-3.525,3.695-7.089,5.286-10.536c0.651-1.41,1.303-2.822,1.98-4.222
    c1.171-2.417,2.442-4.797,3.789-7.318c1.125-2.105,2.288-4.282,3.398-6.503c2.003-4.007,1.098-8.857-2.217-11.871
    c-3.314-3.014-8.229-3.456-12.027-1.081c-5.117,3.198-10.134,6.3-15.254,9.095c-5.952,3.248-10.982,5.829-15.832,8.124l-0.626,0.296
    c-3.833,1.815-7.514,3.558-11.225,5.195c-3.954-4.11-8.247-7.916-12.792-11.335c-5.002-3.764-10.62-7.22-16.699-10.271
    c-5.145-2.582-10.793-4.715-18.315-6.917c-5.672-1.66-11.793-2.779-19.262-3.521c-0.803-0.08-1.605-0.164-2.409-0.248
    c-5.527-0.579-11.241-1.176-17.329-0.583c-6.951,0.679-13.435,2.522-19.408,4.413c-5.681,1.8-12.264,4.022-18.487,7.633
    c-5.732,3.325-10.442,7.659-14.997,11.851l-0.633,0.582c-0.104,0.095-0.204,0.192-0.304,0.291c-1.055,1.055-1.736,1.992-2.143,2.552
    c-0.026,0.036-0.053,0.072-0.079,0.109c-5.425,4.705-9.791,9.368-13.334,14.237c-4.508,6.193-7.412,12.908-9.441,18.071
    c-2.288,5.83-3.807,12.268-4.641,19.678c-0.726,5.008-1.957,9.891-3.258,15.057c-0.338,1.343-0.676,2.682-1.003,4.022l-0.068,0.279
    c-1.116,4.56-2.187,8.94-3.519,13.188c-1.931-0.371-3.885-0.764-5.879-1.165l-1.948-0.391c-5.965-1.194-11.787-2.389-17.437-3.878
    l-1.918-0.504c-5.325-1.398-10.354-2.719-15.3-4.342c-5.624-1.844-11.289-3.888-16.837-6.075l-1.795-0.706
    c-5.15-2.024-10.014-3.935-14.762-6.131c-3.838-1.774-7.592-3.817-11.567-5.979c-1.435-0.78-2.868-1.561-4.308-2.329
    c-4.551-2.429-8.949-5.113-13.605-7.956l-4.507-2.741c-4.375-2.65-8.508-5.154-12.485-7.897
    c-5.642-3.891-10.245-7.238-14.486-10.533c-4.598-3.573-9.247-7.408-13.819-11.398c-4.465-3.896-8.817-8.158-13.026-12.28
    c-1.026-1.005-2.053-1.999-3.076-2.99c-3.339-3.232-6.492-6.286-9.47-9.562c-2.128-2.341-5.237-3.537-8.385-3.225
    c-3.148,0.312-5.962,2.094-7.59,4.807c-3.425,5.709-6.085,11.291-8.236,15.997c-2.295,5.021-4.867,11.042-6.543,17.625
    c-1.583,6.211-2.385,12.712-2.385,19.322c0,6.261,0.132,12.94,1.715,19.724c1.567,6.717,4.29,12.601,6.922,18.291l0.806,1.751
    c2.315,5.043,4.71,10.259,8.155,15.269c0.653,0.95,1.33,1.884,2.021,2.801c-1.032-0.383-2.074-0.776-3.128-1.174
    c-0.989-0.373-1.978-0.746-2.97-1.115c-1.777-1.119-4.011-1.797-6.686-1.797c-4.864,0-9.023,3.5-9.854,8.293
    c-0.405,2.338,0.04,4.653,1.133,6.6c-0.458,5.478-0.339,11.126,0.358,16.855c0.985,8.092,2.684,15.065,5.193,21.317
    c2.838,7.069,7.04,13.125,11.101,18.722c4.45,6.132,9.164,11.296,14.404,15.778c1.068,0.979,2.258,1.723,3.567,2.228
    c0.806,1.294,2.01,2.779,3.836,3.998c-1.889,0.506-3.629,1.565-4.967,3.107c-2.65,3.056-3.198,7.406-1.39,11.023
    c1.434,2.869,2.6,5.383,3.834,8.044c1.241,2.676,2.524,5.443,4.09,8.574c0.054,0.107,0.109,0.213,0.166,0.318
    c3.07,5.626,6.448,11.584,10.998,17.15c3.249,3.976,6.828,7.47,10.29,10.849c1.09,1.064,2.187,2.135,3.278,3.226
    c0.334,0.335,0.692,0.645,1.071,0.929c1.704,1.278,3.25,2.628,4.888,4.057c1.84,1.605,3.742,3.266,6.038,4.987
    c0.148,0.111,0.299,0.218,0.454,0.321c5.187,3.457,12.161,7.794,20.127,10.671c0.356,0.128,0.714,0.255,1.075,0.379
    c-3.7,2.437-7.466,4.484-10.516,6.081c-5.554,2.908-10.199,5.03-14.617,6.678c-4.783,1.785-9.715,3.198-15.647,4.771
    c-5.669,1.501-10.967,2.709-16.199,3.69c-1.896,0.356-3.788,0.741-5.679,1.127c-3.779,0.771-7.349,1.499-10.891,1.976
    c-1.579,0.213-3.157,0.434-4.732,0.653c-4.218,0.59-8.201,1.146-12.192,1.553c-3.213,0.327-6.46,0.563-9.6,0.791
    c-2.454,0.178-4.899,0.356-7.366,0.575c-4.31,0.384-7.885,3.496-8.858,7.712c-0.973,4.217,0.876,8.581,4.583,10.814
    c5.589,3.367,10.669,6.391,16.245,9.284c1.048,0.544,2.094,1.092,3.141,1.641c4.427,2.32,9.004,4.719,13.799,6.836
    c3.902,1.724,7.791,2.982,11.551,4.199c2.204,0.713,4.287,1.387,6.298,2.129c1.078,0.397,2.153,0.799,3.229,1.2
    c4.698,1.753,9.556,3.565,14.603,5.078c7.212,2.161,12.843,3.688,18.258,4.947c4.667,1.087,9.293,1.811,13.768,2.51
    c1.621,0.253,3.241,0.507,4.858,0.777l1.859,0.312c5.453,0.918,11.092,1.866,16.851,2.455c6.382,0.653,12.576,0.921,18.889,1.157
    c4.345,0.162,8.902,0.313,13.571,0.313c1.773,0,3.563-0.022,5.362-0.073c6.551-0.188,12.957-0.742,18.904-1.313
    c5.633-0.542,11.602-1.351,18.784-2.545l1.892-0.313c5.456-0.901,11.099-1.834,16.761-3.189c1.286-0.308,2.576-0.608,3.866-0.908
    c4.742-1.104,9.645-2.246,14.56-3.805c4.867-1.542,9.505-3.432,13.99-5.258c1.26-0.514,2.521-1.027,3.788-1.533
    c1.711-0.684,3.439-1.335,5.172-1.987c4.073-1.534,8.284-3.121,12.569-5.213c0.532-0.267,1.153-0.5,1.94-0.796
    c1.046-0.393,2.344-0.88,3.784-1.595c1.221-0.589,2.442-1.169,3.661-1.746c4.558-2.162,9.271-4.397,13.823-7.071
    c4.387-2.574,8.375-5.438,12.232-8.206c1.329-0.954,2.656-1.907,3.992-2.841l0.703-0.492c4.979-3.479,10.127-7.076,15.054-11.096
    c0.879-0.717,1.762-1.431,2.645-2.146c4.055-3.282,8.247-6.677,12.268-10.428c3.4-3.17,6.522-6.528,9.541-9.776
    c1.303-1.401,2.608-2.806,3.936-4.193c0.142-0.147,0.277-0.299,0.409-0.454c1.51-1.786,3.067-3.504,4.716-5.322
    c2.137-2.357,4.346-4.795,6.445-7.393c2.655-3.283,5.006-6.656,7.279-9.918c0.946-1.357,1.894-2.719,2.865-4.073
    c3.395-4.733,6.695-9.406,9.717-14.443c3.045-4.964,6.037-10.249,9.419-16.633c2.217-4.188,4.024-8.391,5.773-12.453
    c0.713-1.655,1.423-3.308,2.157-4.944c2.501-5.575,4.858-11.361,7.208-17.688c0.761-2.047,1.628-4.1,2.546-6.272
    c1.551-3.669,3.154-7.463,4.382-11.588c1.26-4.231,2.069-8.394,2.852-12.419c0.424-2.185,0.825-4.249,1.286-6.274
    c0.436-1.912,0.913-3.813,1.418-5.826c1.031-4.109,2.098-8.358,2.817-12.816c1.026-6.341,1.861-12.715,2.48-18.943
    c0.621-6.245,0.899-12.317,1.173-19.039c0.006-0.136,0.009-0.272,0.009-0.408c0-2.42-0.594-4.538-1.486-6.381
    c2.798-2.402,5.451-4.86,8.072-7.289c4.154-3.848,9.029-8.478,13.678-13.645c4.071-4.523,7.765-9.141,11.675-14.03l0.463-0.578
    c0.28-0.35,0.536-0.718,0.767-1.102c0.657-1.096,1.475-2.219,2.339-3.409c2.797-3.845,6.276-8.629,6.276-15.406
    C272.96,139.45,270.902,136.042,267.615,134.313z M224.113,176.716c-4.275,3.961-8.319,7.708-12.758,10.994
    c-1.07,0.65-1.938,1.377-2.621,2.061c-2.023,2.036-3.142,4.886-3.066,7.821c0.066,2.563,1.113,5.002,2.926,6.815
    c0.414,0.414,0.88,0.853,1.37,1.312c0.319,0.299,0.754,0.706,1.13,1.08c-0.234,5.537-0.498,10.627-1.001,15.673
    c-0.579,5.824-1.359,11.789-2.321,17.73c-0.584,3.614-1.501,7.27-2.473,11.141c-0.509,2.029-1.035,4.127-1.52,6.253
    c-0.532,2.337-0.983,4.657-1.419,6.9c-0.723,3.718-1.405,7.231-2.388,10.528c-0.912,3.064-2.234,6.195-3.635,9.509
    c-0.963,2.277-1.958,4.632-2.872,7.094c-2.195,5.912-4.39,11.299-6.708,16.467c-0.775,1.729-1.527,3.475-2.28,5.224
    c-1.665,3.87-3.238,7.525-5.078,11.001c-3.179,6.001-5.972,10.938-8.843,15.617c-2.688,4.48-5.607,8.612-8.87,13.162
    c-1.022,1.427-2.023,2.862-3.021,4.294c-2.167,3.11-4.215,6.048-6.423,8.778c-1.745,2.159-3.672,4.285-5.711,6.535
    c-1.624,1.792-3.302,3.642-4.967,5.601c-1.322,1.386-2.625,2.786-3.924,4.184c-2.908,3.129-5.654,6.083-8.533,8.768
    c-3.509,3.273-7.25,6.303-11.211,9.509c-0.901,0.729-1.803,1.459-2.701,2.192c-4.353,3.55-8.975,6.78-13.869,10.2l-0.707,0.494
    c-1.403,0.981-2.799,1.982-4.195,2.985c-3.651,2.62-7.099,5.096-10.695,7.207c-3.794,2.228-7.909,4.18-12.267,6.246
    c-1.279,0.606-2.563,1.215-3.843,1.833c-0.042,0.021-0.084,0.041-0.125,0.062c-0.533,0.267-1.154,0.5-1.941,0.795
    c-1.063,0.399-2.385,0.896-3.766,1.587c-3.355,1.638-6.954,2.994-10.764,4.43c-1.855,0.699-3.708,1.397-5.539,2.129
    c-1.308,0.522-2.61,1.053-3.912,1.584c-4.312,1.756-8.384,3.414-12.49,4.716c-4.169,1.321-8.484,2.326-13.052,3.39
    c-1.331,0.311-2.662,0.62-3.987,0.938c-4.968,1.189-10.018,2.023-15.364,2.907l-1.911,0.316c-6.719,1.116-12.254,1.868-17.419,2.365
    c-5.598,0.538-11.6,1.06-17.559,1.229c-5.931,0.173-11.955-0.022-17.616-0.234c-5.971-0.224-11.81-0.474-17.601-1.067
    c-5.117-0.522-10.194-1.377-15.57-2.281l-1.877-0.315c-1.688-0.282-3.377-0.547-5.067-0.811c-4.306-0.674-8.373-1.31-12.323-2.229
    c-4.995-1.163-10.253-2.59-17.051-4.627c-4.415-1.323-8.756-2.942-13.352-4.658c-1.098-0.409-2.197-0.819-3.3-1.227
    c-2.391-0.882-4.765-1.649-7.061-2.393c-3.429-1.11-6.668-2.158-9.629-3.467c-1.011-0.446-2.016-0.909-3.02-1.388
    c0.862-0.119,1.725-0.238,2.588-0.354c4.211-0.566,8.282-1.396,12.219-2.2c1.791-0.365,3.581-0.73,5.374-1.067
    c5.716-1.072,11.483-2.386,17.632-4.015c5.627-1.492,11.643-3.174,17.514-5.365c5.22-1.946,10.591-4.393,16.904-7.697
    c4.507-2.359,10.408-5.602,16.081-9.764c4.797-3.52,9.881-7.44,14.552-12.251c2.62-2.699,3.503-6.64,2.288-10.198
    c-1.216-3.56-4.326-6.136-8.049-6.667c-7.471-1.067-12.997-2.335-17.915-4.11c-4.578-1.653-9.394-4.23-15.586-8.342
    c-1.62-1.23-3.105-2.526-4.674-3.896c-1.682-1.468-3.417-2.981-5.456-4.546c-0.987-0.98-1.977-1.946-2.961-2.907
    c-3.207-3.131-6.236-6.087-8.773-9.192c-3.1-3.793-5.705-8.228-8.095-12.558c5.477,0.303,10.628,0.079,15.348-0.664
    c6.084-0.958,12.205-2.961,18.191-5.954c3.798-1.899,5.982-5.99,5.448-10.203s-3.672-7.629-7.824-8.52
    c-2.046-0.438-4.107-0.838-6.17-1.236c-4.915-0.951-9.557-1.85-13.81-3.274c-5.342-1.788-10.516-4.568-15.804-8.493
    c-1-0.841-2.288-1.637-3.902-2.119c-0.808-1.161-1.939-2.413-3.54-3.459c-1.213-0.91-2.565-1.55-4.054-1.915
    c-3.414-3.128-6.578-6.719-9.624-10.917c-3.464-4.774-6.739-9.471-8.728-14.426c-1.853-4.616-3.128-9.943-3.9-16.284
    c-0.188-1.549-0.322-3.086-0.4-4.609c2.398,0.818,4.85,1.585,7.369,2.247c7.214,1.895,14.418,2.851,21.386,3.775l1.532,0.204
    c4.382,0.584,8.629-1.779,10.443-5.812c1.813-4.033,0.762-8.778-2.585-11.668c-4.836-4.177-8.422-7.6-11.624-11.098
    c-3.445-3.763-7.349-8.028-10.369-12.418c-2.467-3.588-4.406-7.811-6.458-12.281l-0.83-1.802c-2.312-4.997-4.495-9.717-5.597-14.439
    c-1.1-4.714-1.192-10.083-1.192-15.179c0-5.016,0.578-9.721,1.766-14.385c1.286-5.049,3.427-10.037,5.352-14.25
    c0.356-0.779,0.728-1.585,1.115-2.411c0.155,0.15,0.309,0.3,0.463,0.449c0.997,0.964,1.996,1.932,2.995,2.911
    c4.411,4.32,8.972,8.787,13.869,13.06c4.856,4.238,9.8,8.316,14.698,12.122c4.548,3.533,9.442,7.093,15.402,11.204
    c4.464,3.079,9.046,5.855,13.478,8.54l4.449,2.705c4.694,2.866,9.548,5.829,14.61,8.53c1.392,0.743,2.778,1.498,4.166,2.252
    c4.082,2.221,8.303,4.518,12.732,6.565c5.28,2.441,10.649,4.551,15.841,6.591l1.778,0.699c5.908,2.329,11.943,4.506,17.936,6.471
    c5.516,1.81,11.076,3.27,16.453,4.683l1.9,0.5c6.187,1.631,12.333,2.894,18.612,4.15l1.932,0.388
    c5.439,1.093,11.063,2.223,16.822,3.012c2.862,0.394,5.754-0.472,7.931-2.372c2.178-1.899,3.427-4.646,3.427-7.536
    c0-0.942-0.11-1.793-0.271-2.542c2.034-5.907,3.465-11.757,4.855-17.444l0.067-0.277c0.317-1.294,0.644-2.59,0.971-3.889
    c1.383-5.488,2.813-11.162,3.685-17.261c0.015-0.104,0.028-0.207,0.039-0.311c0.634-5.708,1.746-10.53,3.397-14.739
    c1.592-4.049,3.825-9.255,6.997-13.613c2.731-3.753,6.234-7.442,10.71-11.278c0.194-0.167,0.382-0.341,0.563-0.521
    c1.055-1.055,1.736-1.992,2.143-2.552c0.043-0.058,0.084-0.117,0.128-0.176l0.319-0.294c3.936-3.621,7.653-7.042,11.49-9.268
    c4.471-2.593,9.611-4.32,14.49-5.866c4.932-1.561,10.2-3.074,15.313-3.574c4.075-0.395,8.558,0.073,13.305,0.569
    c0.838,0.088,1.676,0.175,2.514,0.259c6.205,0.616,11.169,1.51,15.62,2.813c6.322,1.851,10.938,3.577,14.964,5.598
    c5.009,2.514,9.599,5.332,13.644,8.375c4.249,3.198,8.229,6.81,11.829,10.737c0.089,0.098,0.205,0.218,0.299,0.312l0.206,0.215
    c6.624,6.942,12.659,5.852,15.916,4.375c5.642-2.332,11.085-4.91,16.353-7.404l0.623-0.295c1.272-0.602,2.567-1.229,3.892-1.882
    c-1.661,2.781-3.562,5.76-5.704,8.5c-1.865,1.304-3.227,2.774-4.381,4.021c-0.378,0.408-0.774,0.839-1.22,1.285
    c-3.588,3.588-8.719,6.833-12.266,8.961c-4.188,2.512-5.948,7.682-4.164,12.228c1.783,4.545,6.589,7.134,11.368,6.133l2.504-0.524
    c5.752-1.201,11.699-2.444,17.396-4.033c0.956-0.267,1.906-0.548,2.847-0.839C230.265,170.961,227.025,174.018,224.113,176.716z"/>

</svg>
